<svg width="25" height="25" viewBox="0 0 25 25" fill="none" xmlns="http://www.w3.org/2000/svg">
   <path d="M16.9829 13.3579C18.1676 12.4259 19.0322 11.1478 19.4567 9.70141C19.8811 8.25506 19.8441 6.71238 19.351 5.288C18.8578 3.86362 17.933 2.62837 16.7051 1.75409C15.4772 0.879822 14.0073 0.410004 12.5 0.410004C10.9927 0.410004 9.5228 0.879822 8.29491 1.75409C7.06702 2.62837 6.14216 3.86362 5.649 5.288C5.15584 6.71238 5.11891 8.25506 5.54333 9.70141C5.96776 11.1478 6.83244 12.4259 8.01708 13.3579C5.98717 14.1712 4.21601 15.52 2.89241 17.2607C1.56881 19.0014 0.742385 21.0686 0.501246 23.2421C0.483791 23.4007 0.497762 23.5613 0.54236 23.7146C0.586958 23.8679 0.661311 24.0109 0.761172 24.1354C0.962852 24.3869 1.25619 24.5481 1.57666 24.5833C1.89713 24.6186 2.21848 24.5251 2.47001 24.3234C2.72155 24.1217 2.88266 23.8284 2.91791 23.5079C3.18324 21.1458 4.30953 18.9643 6.08159 17.3802C7.85365 15.796 10.1472 14.9203 12.5242 14.9203C14.9011 14.9203 17.1947 15.796 18.9667 17.3802C20.7388 18.9643 21.8651 21.1458 22.1304 23.5079C22.1633 23.8048 22.3049 24.079 22.5281 24.2776C22.7512 24.4762 23.04 24.5851 23.3387 24.5833H23.4717C23.7884 24.5469 24.0779 24.3867 24.2771 24.1377C24.4763 23.8888 24.569 23.5712 24.535 23.2541C24.2927 21.0746 23.4618 19.002 22.1314 17.2586C20.801 15.5153 19.0213 14.1668 16.9829 13.3579ZM12.5 12.5C11.5441 12.5 10.6096 12.2165 9.81474 11.6854C9.0199 11.1543 8.4004 10.3995 8.03458 9.51628C7.66875 8.63311 7.57304 7.66128 7.75953 6.72371C7.94603 5.78613 8.40636 4.92492 9.08231 4.24896C9.75827 3.57301 10.6195 3.11268 11.5571 2.92618C12.4946 2.73969 13.4665 2.8354 14.3496 3.20123C15.2328 3.56705 15.9877 4.18655 16.5188 4.98139C17.0499 5.77623 17.3333 6.7107 17.3333 7.66665C17.3333 8.94852 16.8241 10.1779 15.9177 11.0843C15.0113 11.9908 13.7819 12.5 12.5 12.5Z" fill="#13FEF0"/>
</svg>
