<svg width="14" height="14" viewBox="0 0 14 14" fill="none" xmlns="http://www.w3.org/2000/svg">
   <path d="M7.00004 8.33334C7.1319 8.33334 7.26079 8.29424 7.37042 8.22099C7.48005 8.14774 7.5655 8.04362 7.61596 7.9218C7.66642 7.79998 7.67962 7.66594 7.6539 7.53662C7.62817 7.4073 7.56468 7.28851 7.47145 7.19527C7.37821 7.10204 7.25942 7.03854 7.1301 7.01282C7.00078 6.9871 6.86674 7.0003 6.74492 7.05076C6.6231 7.10122 6.51898 7.18666 6.44573 7.2963C6.37247 7.40593 6.33337 7.53482 6.33337 7.66668C6.33337 7.84349 6.40361 8.01306 6.52864 8.13808C6.65366 8.26311 6.82323 8.33334 7.00004 8.33334ZM10.3334 8.33334C10.4652 8.33334 10.5941 8.29424 10.7038 8.22099C10.8134 8.14774 10.8988 8.04362 10.9493 7.9218C10.9998 7.79998 11.013 7.66594 10.9872 7.53662C10.9615 7.4073 10.898 7.28851 10.8048 7.19527C10.7115 7.10204 10.5928 7.03854 10.4634 7.01282C10.3341 6.9871 10.2001 7.0003 10.0783 7.05076C9.95644 7.10122 9.85231 7.18666 9.77906 7.2963C9.70581 7.40593 9.66671 7.53482 9.66671 7.66668C9.66671 7.84349 9.73695 8.01306 9.86197 8.13808C9.98699 8.26311 10.1566 8.33334 10.3334 8.33334ZM7.00004 11C7.1319 11 7.26079 10.9609 7.37042 10.8877C7.48005 10.8144 7.5655 10.7103 7.61596 10.5885C7.66642 10.4666 7.67962 10.3326 7.6539 10.2033C7.62817 10.074 7.56468 9.95517 7.47145 9.86194C7.37821 9.7687 7.25942 9.70521 7.1301 9.67949C7.00078 9.65376 6.86674 9.66697 6.74492 9.71742C6.6231 9.76788 6.51898 9.85333 6.44573 9.96296C6.37247 10.0726 6.33337 10.2015 6.33337 10.3333C6.33337 10.5102 6.40361 10.6797 6.52864 10.8047C6.65366 10.9298 6.82323 11 7.00004 11ZM10.3334 11C10.4652 11 10.5941 10.9609 10.7038 10.8877C10.8134 10.8144 10.8988 10.7103 10.9493 10.5885C10.9998 10.4666 11.013 10.3326 10.9872 10.2033C10.9615 10.074 10.898 9.95517 10.8048 9.86194C10.7115 9.7687 10.5928 9.70521 10.4634 9.67949C10.3341 9.65376 10.2001 9.66697 10.0783 9.71742C9.95644 9.76788 9.85231 9.85333 9.77906 9.96296C9.70581 10.0726 9.66671 10.2015 9.66671 10.3333C9.66671 10.5102 9.73695 10.6797 9.86197 10.8047C9.98699 10.9298 10.1566 11 10.3334 11ZM3.66671 8.33334C3.79856 8.33334 3.92745 8.29424 4.03709 8.22099C4.14672 8.14774 4.23217 8.04362 4.28263 7.9218C4.33309 7.79998 4.34629 7.66594 4.32056 7.53662C4.29484 7.4073 4.23135 7.28851 4.13811 7.19527C4.04488 7.10204 3.92609 7.03854 3.79677 7.01282C3.66745 6.9871 3.5334 7.0003 3.41159 7.05076C3.28977 7.10122 3.18565 7.18666 3.11239 7.2963C3.03914 7.40593 3.00004 7.53482 3.00004 7.66668C3.00004 7.84349 3.07028 8.01306 3.1953 8.13808C3.32033 8.26311 3.4899 8.33334 3.66671 8.33334ZM11.6667 1.66668H11V1.00001C11 0.823199 10.9298 0.65363 10.8048 0.528606C10.6798 0.403581 10.5102 0.333344 10.3334 0.333344C10.1566 0.333344 9.98699 0.403581 9.86197 0.528606C9.73695 0.65363 9.66671 0.823199 9.66671 1.00001V1.66668H4.33337V1.00001C4.33337 0.823199 4.26314 0.65363 4.13811 0.528606C4.01309 0.403581 3.84352 0.333344 3.66671 0.333344C3.4899 0.333344 3.32033 0.403581 3.1953 0.528606C3.07028 0.65363 3.00004 0.823199 3.00004 1.00001V1.66668H2.33337C1.80294 1.66668 1.29423 1.87739 0.919161 2.25246C0.544088 2.62754 0.333374 3.13624 0.333374 3.66668V11.6667C0.333374 12.1971 0.544088 12.7058 0.919161 13.0809C1.29423 13.456 1.80294 13.6667 2.33337 13.6667H11.6667C12.1971 13.6667 12.7058 13.456 13.0809 13.0809C13.456 12.7058 13.6667 12.1971 13.6667 11.6667V3.66668C13.6667 3.13624 13.456 2.62754 13.0809 2.25246C12.7058 1.87739 12.1971 1.66668 11.6667 1.66668ZM12.3334 11.6667C12.3334 11.8435 12.2631 12.0131 12.1381 12.1381C12.0131 12.2631 11.8435 12.3333 11.6667 12.3333H2.33337C2.15656 12.3333 1.98699 12.2631 1.86197 12.1381C1.73695 12.0131 1.66671 11.8435 1.66671 11.6667V5.66668H12.3334V11.6667ZM12.3334 4.33334H1.66671V3.66668C1.66671 3.48987 1.73695 3.3203 1.86197 3.19527C1.98699 3.07025 2.15656 3.00001 2.33337 3.00001H11.6667C11.8435 3.00001 12.0131 3.07025 12.1381 3.19527C12.2631 3.3203 12.3334 3.48987 12.3334 3.66668V4.33334ZM3.66671 11C3.79856 11 3.92745 10.9609 4.03709 10.8877C4.14672 10.8144 4.23217 10.7103 4.28263 10.5885C4.33309 10.4666 4.34629 10.3326 4.32056 10.2033C4.29484 10.074 4.23135 9.95517 4.13811 9.86194C4.04488 9.7687 3.92609 9.70521 3.79677 9.67949C3.66745 9.65376 3.5334 9.66697 3.41159 9.71742C3.28977 9.76788 3.18565 9.85333 3.11239 9.96296C3.03914 10.0726 3.00004 10.2015 3.00004 10.3333C3.00004 10.5102 3.07028 10.6797 3.1953 10.8047C3.32033 10.9298 3.4899 11 3.66671 11Z" fill="#8090A0"/>
</svg>
