<svg width="17" height="23" viewBox="0 0 17 23" fill="none" xmlns="http://www.w3.org/2000/svg">
<path fill-rule="evenodd" clip-rule="evenodd" d="M11.9987 8.82031H16.2632L15.5 9.5H11.9395C11.9964 9.17334 11.9395 9.33744 11.9987 8.82031ZM0.179688 8.82031H4.85011C4.85018 9.15773 4.94317 9.17334 5 9.5H1.34791L0.179688 8.82031Z" fill="#1080C2"/>
<path fill-rule="evenodd" clip-rule="evenodd" d="M12.0005 9.5H15.9141L15.1849 10H11.8051C11.9283 9.68615 11.9373 9.84992 12.0005 9.5ZM0.914062 9.5H4.89772C4.96096 9.84992 4.87681 9.68615 5 10H1.81499L0.914062 9.5Z" fill="white"/>
<path fill-rule="evenodd" clip-rule="evenodd" d="M2 10H5C5.14077 10.3679 5.57516 10.7044 5.7755 11H2.79114L2 10ZM11.7864 10H15L14.2074 11H11.2716C11.4719 10.7044 11.6456 10.3679 11.7864 10Z" fill="#5CB85C"/>
<path d="M4.25343 21.1959C3.69409 20.6254 3.24999 19.9475 2.94703 19.201C2.64407 18.4544 2.48805 17.6539 2.4878 16.8455V11.2563L0 8.70833L0.277815 8.42308L2.49015 6.15625V2.54796H6.01397L8.50176 0L10.9892 2.54796H14.5122V6.15625L17 8.70421L14.5122 11.2522V16.8413C14.512 17.6498 14.3559 18.4503 14.053 19.1969C13.75 19.9434 13.3064 20.6214 12.747 21.1918C12.1899 21.7647 11.5278 22.2194 10.7987 22.5297C10.0697 22.84 9.28772 22.9998 8.49824 23C7.70958 22.9999 6.92893 22.8405 6.20048 22.5309C5.47204 22.2214 4.81047 21.7677 4.25343 21.1959ZM3.27422 16.8455C3.27458 17.5482 3.41031 18.2439 3.6739 18.8928C3.93748 19.5416 4.32378 20.1307 4.81023 20.6263C5.29413 21.1245 5.86912 21.5199 6.50259 21.7899C7.13607 22.0598 7.81564 22.199 8.50176 22.1994C9.18789 22.199 9.86707 22.0598 10.5005 21.7899C11.134 21.5199 11.709 21.1245 12.1929 20.6263C12.6794 20.1308 13.0657 19.5417 13.3292 18.8929C13.5928 18.244 13.7286 17.5482 13.7289 16.8455V11.1453H11.0456L11.2059 10.9555C11.4612 10.6503 11.66 10.2998 11.7924 9.92146C11.9141 9.56641 11.9801 9.1938 11.9876 8.81759H11.4813C11.4539 9.58674 11.1428 10.3167 10.6106 10.8602C10.3343 11.1439 10.0059 11.3688 9.64437 11.5222C9.28286 11.6755 8.8954 11.7541 8.50411 11.7535C8.11283 11.7541 7.72537 11.6755 7.36386 11.5222C7.00235 11.3688 6.67391 11.1439 6.39758 10.8602C5.86575 10.3166 5.55491 9.58663 5.52769 8.81759H5.02104C5.02847 9.19373 5.09417 9.56631 5.2154 9.92146C5.348 10.2997 5.54675 10.6502 5.80198 10.9555L5.96264 11.1453H3.27892L3.27422 16.8455ZM6.95203 10.2906C7.15546 10.4993 7.39716 10.6649 7.66322 10.7777C7.92929 10.8905 8.21458 10.9484 8.50255 10.9481C8.79053 10.9485 9.07579 10.8906 9.34187 10.7778C9.60794 10.665 9.84929 10.4994 10.0527 10.2906C10.4378 9.89832 10.6669 9.37318 10.6949 8.81759H6.31569C6.34193 9.37228 6.56844 9.8973 6.95125 10.2906H6.95203ZM12.0029 9.99791C11.8878 10.3263 11.7255 10.6351 11.5213 10.9144H13.7348L15.7818 8.81759H12.2125C12.2041 9.21996 12.1329 9.61841 12.0021 9.99791H12.0029ZM5.48263 10.9144C5.27833 10.6352 5.11595 10.3263 5.00106 9.99791C4.87091 9.61831 4.80091 9.21984 4.79338 8.81759H1.21823L3.26521 10.9144H5.48263ZM11.9876 8.58753H15.7826L13.8159 6.57293L11.296 7.64148C11.4059 7.9448 11.4677 8.2642 11.479 8.58753H11.9876ZM10.6918 8.58753C10.6811 8.37023 10.6395 8.15564 10.5687 7.95051L9.57932 8.3705C9.60029 8.4415 9.61447 8.51448 9.62125 8.58833L10.6918 8.58753ZM7.38306 8.58753C7.39038 8.51362 7.40466 8.44064 7.42616 8.3697L6.43598 7.94971C6.365 8.15478 6.32377 8.3694 6.31333 8.58672L7.38306 8.58753ZM5.01713 8.58753H5.52534C5.53681 8.26422 5.5986 7.94485 5.70833 7.64148L3.18919 6.57293L3.15941 6.60333L1.22137 8.58833L5.01713 8.58753ZM7.51119 8.1576C7.54544 8.0924 7.58606 8.03075 7.63188 7.97349L6.87406 7.19841C6.73168 7.35996 6.61303 7.54186 6.52179 7.7384L7.51119 8.1576ZM9.49273 8.1576L10.4821 7.7376C10.3912 7.54088 10.2725 7.35894 10.1299 7.19761L9.37243 7.97268C9.41861 8.03026 9.45886 8.09256 9.49273 8.1585V8.1576ZM9.21335 7.81075L9.96999 7.03487C9.81225 6.88883 9.63486 6.76706 9.44296 6.67327L9.03271 7.68663C9.09665 7.72227 9.15719 7.76409 9.21335 7.81155V7.81075ZM7.78979 7.81075C7.84581 7.76397 7.90609 7.72268 7.96964 7.68744L7.55939 6.67407C7.3679 6.76816 7.1908 6.88991 7.03315 7.03567L7.78979 7.81075ZM8.17654 7.59954C8.2459 7.57825 8.31723 7.56393 8.38931 7.5568V6.46036C8.17708 6.47129 7.96763 6.51387 7.76745 6.58688L8.17654 7.59954ZM8.8266 7.59954L9.23607 6.58608C9.0362 6.51295 8.82659 6.47036 8.61461 6.45956V7.556C8.68645 7.56384 8.75752 7.57866 8.8266 7.60035V7.59954ZM5.79336 7.42938C5.92581 7.13569 6.10253 6.86526 6.31725 6.62802L3.27422 3.51126V6.36093L5.79336 7.42938ZM11.2102 7.42938L13.7297 6.36093V3.51126L10.6867 6.62802C10.9012 6.86539 11.0778 7.13613 11.2094 7.43018L11.2102 7.42938ZM10.528 6.46528L13.5702 3.34852H10.7885L10.4414 4.20748C10.389 4.14754 10.3286 4.0952 10.2623 4.05206L10.5832 3.26053L8.61657 1.24604V5.65398C8.93223 5.66573 9.24394 5.72901 9.54014 5.8414L9.71177 5.41729C9.768 5.46971 9.83499 5.50876 9.90769 5.53157L9.74703 5.9294C10.033 6.06485 10.2964 6.24569 10.5272 6.46528H10.528ZM6.47595 6.46528C6.70737 6.24508 6.97155 6.06395 7.25845 5.92859L6.21537 3.34852H3.43291L6.47595 6.46528ZM7.46574 5.8414C7.76193 5.72901 8.07364 5.66573 8.38931 5.65398V1.24604L6.42227 3.26053L7.46574 5.8414ZM8.10757 21.2428V18.9907C7.54892 18.9037 7.03231 18.6354 6.63347 18.2254C6.38763 17.9749 6.19259 17.6772 6.05942 17.3492C5.92625 17.0213 5.85734 16.6697 5.85723 16.3145V14.013H6.64405V16.3145C6.64412 16.5639 6.69224 16.8108 6.78589 17.041C6.87955 17.2712 7.01664 17.4802 7.18949 17.6558C7.36107 17.8327 7.56502 17.9731 7.78979 18.0689C8.01456 18.1647 8.25596 18.2139 8.49941 18.2139C8.74286 18.2139 8.98387 18.1647 9.20864 18.0689C9.43341 17.9731 9.63737 17.8327 9.80894 17.6558C9.98165 17.4801 10.1186 17.2711 10.2121 17.0409C10.3057 16.8107 10.3536 16.5638 10.3536 16.3145V14.013H11.1412V16.3145C11.1412 16.6696 11.0724 17.0212 10.9394 17.3491C10.8064 17.6771 10.6114 17.9748 10.3657 18.2254C9.96643 18.6352 9.44965 18.9034 8.89086 18.9907V21.2428H8.10757ZM8.10757 17.3041V13.0219H5.86076V12.2155H11.1443V13.0219H8.89713V17.3041H8.10757ZM9.76858 5.31786C9.73049 5.2796 9.70029 5.2339 9.67964 5.18352C9.65898 5.13313 9.64829 5.07904 9.64829 5.02439C9.64829 4.96974 9.65898 4.91564 9.67964 4.86526C9.70029 4.81488 9.73049 4.76928 9.76858 4.73102C9.81888 4.68017 9.88107 4.6434 9.94922 4.62426C10.0174 4.60512 10.0895 4.6042 10.1581 4.62165C10.1609 4.55437 10.1436 4.48786 10.1083 4.43102C10.0827 4.3915 10.0465 4.36038 10.0041 4.34142V4.05788C10.1251 4.09434 10.2353 4.16096 10.325 4.25182C10.3957 4.32307 10.4517 4.40805 10.49 4.50175C10.5283 4.59545 10.548 4.69595 10.548 4.79754C10.5482 4.9636 10.4955 5.12526 10.3979 5.25787C10.3831 5.27936 10.3664 5.29944 10.3481 5.31786C10.2711 5.39614 10.167 5.43985 10.0585 5.43947C9.95085 5.43938 9.84764 5.39569 9.77133 5.31786H9.76858Z" fill="#D1AB66"/>
</svg>
