<svg width="201" height="42" viewBox="0 0 201 42" fill="none" xmlns="http://www.w3.org/2000/svg">
   <path fill-rule="evenodd" clip-rule="evenodd" d="M22.6939 15.9712H30.9129L29.4465 17.22H22.5348C22.6403 16.8121 22.6938 16.3925 22.6939 15.9712ZM0.887085 15.9712H9.1061C9.10622 16.3925 9.15969 16.8121 9.2652 17.22H2.35346L0.887085 15.9712Z" fill="#1080C2"/>
   <path fill-rule="evenodd" clip-rule="evenodd" d="M22.6429 17.4301H29.6642L28.1753 18.6789H22.1296C22.3547 18.2869 22.5273 17.8671 22.6429 17.4301ZM2.13739 17.4301H9.16018C9.27575 17.8671 9.44833 18.2869 9.67348 18.6789H3.62779L2.13739 17.4301Z" fill="white"/>
   <path fill-rule="evenodd" clip-rule="evenodd" d="M3.38617 18.889H9.55042C9.82044 19.3484 10.1523 19.7686 10.5365 20.1377H4.90509L3.38617 18.889ZM22.2512 18.889H28.4154L26.8965 20.1377H21.2651C21.6494 19.7686 21.9812 19.3484 22.2512 18.889Z" fill="#5CB85C"/>
   <path d="M7.95529 38.7056C6.90915 37.6638 6.07855 36.4259 5.51191 35.0627C4.94527 33.6994 4.65346 32.2376 4.65299 30.7613V20.555L0 15.9022L0.519604 15.3813L4.65738 11.2418V4.6528H11.2481L15.9011 0L20.5533 4.6528H27.1425V11.2418L31.7955 15.8947L27.1425 20.5475V30.7538C27.1422 32.2301 26.8503 33.6918 26.2836 35.0551C25.717 36.4184 24.8872 37.6564 23.841 38.6981C22.799 39.7443 21.5607 40.5746 20.1971 41.1413C18.8336 41.7079 17.3711 41.9996 15.8945 42C14.4194 41.9998 12.9593 41.7088 11.5969 41.1435C10.2345 40.5781 8.99715 39.7498 7.95529 38.7056ZM6.12385 30.7613C6.12454 32.0446 6.3784 33.315 6.87138 34.4998C7.36437 35.6846 8.08687 36.7604 8.9967 37.6654C9.90175 38.5752 10.9772 39.2972 12.162 39.7902C13.3468 40.2832 14.6178 40.5373 15.9011 40.5381C17.1843 40.5373 18.4546 40.2832 19.6394 39.7902C20.8242 39.2972 21.8996 38.5752 22.8047 37.6654C23.7147 36.7605 24.437 35.6848 24.93 34.5C25.423 33.3152 25.677 32.0446 25.6775 30.7613V20.3523H20.6588L20.9586 20.0057C21.4362 19.4483 21.808 18.8084 22.0557 18.1174C22.2833 17.4691 22.4066 16.7887 22.4207 16.1017H21.4738C21.4225 17.5062 20.8406 18.8392 19.8454 19.8316C19.3285 20.3498 18.7143 20.7605 18.0381 21.0405C17.362 21.3205 16.6373 21.4641 15.9055 21.463C15.1736 21.4641 14.449 21.3205 13.7728 21.0405C13.0967 20.7605 12.4824 20.3498 11.9656 19.8316C10.9709 18.839 10.3895 17.506 10.3386 16.1017H9.39099C9.40488 16.7886 9.52775 17.4689 9.75449 18.1174C10.0025 18.8082 10.3742 19.4482 10.8516 20.0057L11.1521 20.3523H6.13265L6.12385 30.7613ZM13.0026 18.7915C13.383 19.1727 13.8351 19.475 14.3327 19.681C14.8303 19.8871 15.3639 19.9928 15.9025 19.9921C16.4412 19.9929 16.9747 19.8873 17.4723 19.6812C17.97 19.4751 18.4214 19.1728 18.8018 18.7915C19.5221 18.0752 19.9506 17.1162 20.0029 16.1017H11.8124C11.8615 17.1146 12.2851 18.0733 13.0011 18.7915H13.0026ZM22.4492 18.2571C22.2341 18.8566 21.9304 19.4207 21.5486 19.9306H25.6885L29.517 16.1017H22.8413C22.8255 16.8364 22.6925 17.5641 22.4478 18.2571H22.4492ZM10.2543 19.9306C9.87218 19.4209 9.56848 18.8568 9.35361 18.2571C9.11018 17.5639 8.97927 16.8362 8.96519 16.1017H2.27849L6.107 19.9306H10.2543ZM22.4207 15.6816H29.5185L25.8402 12.0027L21.1272 13.954C21.3327 14.5079 21.4483 15.0911 21.4694 15.6816H22.4207ZM19.9971 15.6816C19.9772 15.2848 19.8994 14.8929 19.7669 14.5183L17.9165 15.2853C17.9557 15.4149 17.9822 15.5482 17.9949 15.683L19.9971 15.6816ZM13.8087 15.6816C13.8224 15.5466 13.8491 15.4134 13.8893 15.2838L12.0374 14.5169C11.9046 14.8913 11.8275 15.2833 11.808 15.6801L13.8087 15.6816ZM9.38366 15.6816H10.3342C10.3556 15.0912 10.4712 14.508 10.6764 13.954L5.96482 12.0027L5.90912 12.0583L2.28435 15.683L9.38366 15.6816ZM14.0484 14.8965C14.1124 14.7774 14.1884 14.6648 14.2741 14.5603L12.8567 13.1449C12.5904 13.4399 12.3685 13.7721 12.1979 14.131L14.0484 14.8965ZM17.7545 14.8965L19.605 14.1295C19.4349 13.7703 19.2129 13.4381 18.9461 13.1435L17.5295 14.5588C17.6159 14.664 17.6911 14.7777 17.7545 14.8981V14.8965ZM17.232 14.2631L18.6471 12.8463C18.3521 12.5796 18.0203 12.3572 17.6614 12.186L16.8941 14.0365C17.0137 14.1015 17.1269 14.1779 17.232 14.2646V14.2631ZM14.5694 14.2631C14.6742 14.1777 14.787 14.1023 14.9058 14.0379L14.1385 12.1874C13.7804 12.3593 13.4491 12.5816 13.1543 12.8477L14.5694 14.2631ZM15.2928 13.8774C15.4225 13.8385 15.5559 13.8124 15.6907 13.7994V11.7972C15.2938 11.8171 14.9021 11.8949 14.5277 12.0282L15.2928 13.8774ZM16.5086 13.8774L17.2745 12.0267C16.9006 11.8932 16.5086 11.8154 16.1121 11.7957V13.7979C16.2465 13.8122 16.3794 13.8393 16.5086 13.8789V13.8774ZM10.8355 13.5667C11.0832 13.0304 11.4137 12.5366 11.8153 12.1033L6.12385 6.41187V11.6156L10.8355 13.5667ZM20.9667 13.5667L25.679 11.6156V6.41187L19.9875 12.1033C20.3888 12.5368 20.7191 13.0312 20.9652 13.5682L20.9667 13.5667ZM19.6907 11.8062L25.3807 6.11469H20.1781L19.5288 7.68322C19.4307 7.57377 19.3179 7.47818 19.1938 7.39941L19.7941 5.95401L16.1158 2.27538V10.3247C16.7062 10.3461 17.2892 10.4617 17.8432 10.6669L18.1642 9.89245C18.2693 9.98817 18.3946 10.0595 18.5306 10.1011L18.2301 10.8276C18.7649 11.0749 19.2575 11.4052 19.6893 11.8062H19.6907ZM12.1121 11.8062C12.545 11.4041 13.0391 11.0733 13.5757 10.8261L11.6248 6.11469H6.42067L12.1121 11.8062ZM13.9634 10.6669C14.5173 10.4617 15.1003 10.3461 15.6907 10.3247V2.27538L12.0117 5.95401L13.9634 10.6669ZM15.1638 38.7911V34.6786C14.1189 34.5197 13.1527 34.0299 12.4067 33.2812C11.9469 32.8238 11.5822 32.2801 11.3331 31.6812C11.084 31.0823 10.9551 30.4403 10.9549 29.7917V25.589H12.4265V29.7917C12.4267 30.2471 12.5167 30.698 12.6918 31.1184C12.867 31.5388 13.1234 31.9203 13.4467 32.2411C13.7676 32.5641 14.149 32.8205 14.5694 32.9954C14.9898 33.1703 15.4413 33.2602 15.8967 33.2602C16.352 33.2602 16.8028 33.1703 17.2232 32.9954C17.6436 32.8205 18.025 32.5641 18.3459 32.2411C18.6689 31.9202 18.9251 31.5386 19.1 31.1182C19.2749 30.6978 19.3647 30.247 19.3646 29.7917V25.589H20.8377V29.7917C20.8376 30.4401 20.709 31.0822 20.4602 31.681C20.2114 32.2799 19.8468 32.8236 19.3873 33.2812C18.6405 34.0295 17.6739 34.5192 16.6288 34.6786V38.7911H15.1638ZM15.1638 31.5988V23.779H10.9615V22.3065H20.8435V23.779H16.6405V31.5988H15.1638ZM18.2704 9.71088C18.1992 9.64102 18.1427 9.55756 18.1041 9.46556C18.0654 9.37355 18.0454 9.27476 18.0454 9.17497C18.0454 9.07518 18.0654 8.97639 18.1041 8.88439C18.1427 8.79239 18.1992 8.70911 18.2704 8.63925C18.3645 8.5464 18.4808 8.47926 18.6083 8.4443C18.7357 8.40935 18.8706 8.40767 18.9989 8.43954C19.0043 8.31668 18.9718 8.19523 18.9058 8.09143C18.8579 8.01926 18.7903 7.96244 18.7109 7.92781V7.41004C18.9372 7.47662 19.1434 7.59828 19.3111 7.7642C19.4433 7.89431 19.548 8.04949 19.6196 8.22059C19.6913 8.3917 19.7282 8.57522 19.7281 8.76072C19.7285 9.06397 19.63 9.35917 19.4474 9.60132C19.4198 9.64057 19.3886 9.67724 19.3543 9.71088C19.2103 9.85382 19.0157 9.93364 18.8128 9.93294C18.6113 9.93278 18.4183 9.85299 18.2756 9.71088H18.2704Z" fill="#CAA56C"/>
   <path d="M48.9717 18H47.9727L47.1562 15.8408H43.8906L43.1226 18H42.1182L45.0723 10.2979H46.0068L48.9717 18ZM46.8608 15.0298L45.6523 11.748C45.613 11.6406 45.5736 11.4688 45.5342 11.2324H45.5127C45.4769 11.4508 45.4357 11.6227 45.3892 11.748L44.1914 15.0298H46.8608ZM55.4707 18H54.2139L51.2383 14.4766C51.1273 14.3441 51.0592 14.2546 51.0342 14.208H51.0127V18H50.1104V10.2979H51.0127V13.918H51.0342C51.0843 13.8392 51.1523 13.7515 51.2383 13.6548L54.1172 10.2979H55.2397L51.9365 13.9932L55.4707 18ZM63.3125 20.0679H62.48V18H56.4912V10.2979H57.3936V17.1836H61.3789V10.2979H62.2812V17.1836H63.3125V20.0679ZM70.8643 18H69.9619V12.4355C69.9619 11.9342 69.9798 11.5815 70.0156 11.3774H69.9834C69.9154 11.5529 69.833 11.714 69.7363 11.8608L65.7725 18H64.6553V10.2979H65.5576V15.7227C65.5576 16.3027 65.5433 16.6805 65.5146 16.856H65.5361C65.6149 16.6984 65.7152 16.5265 65.8369 16.3403L69.7041 10.2979H70.8643V18ZM75.999 18.1289C74.9069 18.1289 74.0314 17.769 73.3726 17.0493C72.7173 16.3296 72.3896 15.3932 72.3896 14.2402C72.3896 13.0013 72.7244 12.013 73.394 11.2754C74.0636 10.5378 74.9749 10.1689 76.1279 10.1689C77.1914 10.1689 78.0472 10.527 78.6953 11.2432C79.347 11.9593 79.6729 12.8957 79.6729 14.0522C79.6729 15.3091 79.3398 16.3027 78.6738 17.0332C78.0078 17.7637 77.1162 18.1289 75.999 18.1289ZM76.0635 10.9854C75.2542 10.9854 74.5972 11.2772 74.0923 11.8608C73.5874 12.4445 73.335 13.2108 73.335 14.1597C73.335 15.1086 73.5802 15.873 74.0708 16.4531C74.5649 17.0296 75.2077 17.3179 75.999 17.3179C76.8441 17.3179 77.5101 17.0422 77.9971 16.4907C78.484 15.9393 78.7275 15.1676 78.7275 14.1758C78.7275 13.1589 78.4912 12.3729 78.0186 11.8179C77.5459 11.2629 76.8942 10.9854 76.0635 10.9854ZM86.9775 18H86.0752V14.4873H82.0898V18H81.1875V10.2979H82.0898V13.6763H86.0752V10.2979H86.9775V18ZM93.0791 18H88.9971V10.2979H92.9072V11.1143H89.8994V13.6763H92.6816V14.4873H89.8994V17.1836H93.0791V18ZM95.4639 15.0889V18H94.5615V10.2979H96.6777C97.5013 10.2979 98.1387 10.4984 98.5898 10.8994C99.0446 11.3005 99.272 11.8662 99.272 12.5967C99.272 13.3271 99.0195 13.9251 98.5146 14.3906C98.0133 14.8561 97.3348 15.0889 96.479 15.0889H95.4639ZM95.4639 11.1143V14.2725H96.4092C97.0322 14.2725 97.5067 14.131 97.8325 13.8481C98.1619 13.5617 98.3267 13.1589 98.3267 12.6396C98.3267 11.6227 97.7251 11.1143 96.522 11.1143H95.4639ZM106.518 18H105.615V14.4873H101.63V18H100.728V10.2979H101.63V13.6763H105.615V10.2979H106.518V18ZM111.642 18.1289C110.549 18.1289 109.674 17.769 109.015 17.0493C108.36 16.3296 108.032 15.3932 108.032 14.2402C108.032 13.0013 108.367 12.013 109.037 11.2754C109.706 10.5378 110.618 10.1689 111.771 10.1689C112.834 10.1689 113.69 10.527 114.338 11.2432C114.99 11.9593 115.315 12.8957 115.315 14.0522C115.315 15.3091 114.982 16.3027 114.316 17.0332C113.65 17.7637 112.759 18.1289 111.642 18.1289ZM111.706 10.9854C110.897 10.9854 110.24 11.2772 109.735 11.8608C109.23 12.4445 108.978 13.2108 108.978 14.1597C108.978 15.1086 109.223 15.873 109.713 16.4531C110.208 17.0296 110.85 17.3179 111.642 17.3179C112.487 17.3179 113.153 17.0422 113.64 16.4907C114.127 15.9393 114.37 15.1676 114.37 14.1758C114.37 13.1589 114.134 12.3729 113.661 11.8179C113.188 11.2629 112.537 10.9854 111.706 10.9854ZM120.912 18H116.83V10.2979H120.74V11.1143H117.732V13.6763H120.515V14.4873H117.732V17.1836H120.912V18ZM128.518 18.1289C127.425 18.1289 126.55 17.769 125.891 17.0493C125.236 16.3296 124.908 15.3932 124.908 14.2402C124.908 13.0013 125.243 12.013 125.913 11.2754C126.582 10.5378 127.493 10.1689 128.646 10.1689C129.71 10.1689 130.566 10.527 131.214 11.2432C131.866 11.9593 132.191 12.8957 132.191 14.0522C132.191 15.3091 131.858 16.3027 131.192 17.0332C130.526 17.7637 129.635 18.1289 128.518 18.1289ZM128.582 10.9854C127.773 10.9854 127.116 11.2772 126.611 11.8608C126.106 12.4445 125.854 13.2108 125.854 14.1597C125.854 15.1086 126.099 15.873 126.589 16.4531C127.083 17.0296 127.726 17.3179 128.518 17.3179C129.363 17.3179 130.029 17.0422 130.516 16.4907C131.003 15.9393 131.246 15.1676 131.246 14.1758C131.246 13.1589 131.01 12.3729 130.537 11.8179C130.064 11.2629 129.413 10.9854 128.582 10.9854ZM133.706 18V10.2979H137.82V11.1143H134.608V13.5635H136.069C136.836 13.5635 137.432 13.7497 137.858 14.1221C138.284 14.4909 138.497 15.0173 138.497 15.7012C138.497 16.4102 138.273 16.9705 137.826 17.3823C137.378 17.7941 136.768 18 135.994 18H133.706ZM134.608 14.3799V17.1836H135.876C136.41 17.1836 136.821 17.0583 137.111 16.8076C137.401 16.557 137.546 16.2061 137.546 15.7549C137.546 14.8382 136.99 14.3799 135.876 14.3799H134.608ZM149.443 20.0679H148.611V18H140.001V10.2979H140.903V17.1836H143.755V10.2979H144.658V17.1836H147.504V10.2979H148.407V17.1836H149.443V20.0679ZM154.868 18H150.786V10.2979H154.696V11.1143H151.688V13.6763H154.471V14.4873H151.688V17.1836H154.868V18ZM161.593 17.6777C161.023 17.9785 160.314 18.1289 159.466 18.1289C158.37 18.1289 157.493 17.7762 156.834 17.0708C156.175 16.3654 155.846 15.4398 155.846 14.2939C155.846 13.0622 156.216 12.0667 156.958 11.3076C157.699 10.5485 158.639 10.1689 159.777 10.1689C160.508 10.1689 161.113 10.2746 161.593 10.4858V11.4473C161.041 11.1393 160.433 10.9854 159.767 10.9854C158.882 10.9854 158.164 11.2808 157.613 11.8716C157.065 12.4624 156.791 13.252 156.791 14.2402C156.791 15.1784 157.047 15.9268 157.559 16.4854C158.075 17.0404 158.75 17.3179 159.584 17.3179C160.357 17.3179 161.027 17.146 161.593 16.8022V17.6777ZM167.716 11.1143H165.492V18H164.59V11.1143H162.372V10.2979H167.716V11.1143ZM168.93 18V10.2979H171.121C171.787 10.2979 172.315 10.4608 172.706 10.7866C173.096 11.1125 173.291 11.5368 173.291 12.0596C173.291 12.4964 173.173 12.876 172.937 13.1982C172.7 13.5205 172.374 13.7497 171.959 13.8857V13.9072C172.478 13.9681 172.894 14.165 173.205 14.498C173.517 14.8275 173.672 15.2572 173.672 15.7871C173.672 16.446 173.436 16.9795 172.963 17.3877C172.491 17.7959 171.895 18 171.175 18H168.93ZM169.832 11.1143V13.6011H170.756C171.25 13.6011 171.639 13.4829 171.921 13.2466C172.204 13.0067 172.346 12.6701 172.346 12.2368C172.346 11.4884 171.853 11.1143 170.869 11.1143H169.832ZM169.832 14.4121V17.1836H171.057C171.587 17.1836 171.997 17.0583 172.287 16.8076C172.58 16.557 172.727 16.2132 172.727 15.7764C172.727 14.8669 172.108 14.4121 170.869 14.4121H169.832ZM178.34 18.1289C177.248 18.1289 176.372 17.769 175.713 17.0493C175.058 16.3296 174.73 15.3932 174.73 14.2402C174.73 13.0013 175.065 12.013 175.735 11.2754C176.404 10.5378 177.316 10.1689 178.469 10.1689C179.532 10.1689 180.388 10.527 181.036 11.2432C181.688 11.9593 182.014 12.8957 182.014 14.0522C182.014 15.3091 181.681 16.3027 181.015 17.0332C180.349 17.7637 179.457 18.1289 178.34 18.1289ZM178.404 10.9854C177.595 10.9854 176.938 11.2772 176.433 11.8608C175.928 12.4445 175.676 13.2108 175.676 14.1597C175.676 15.1086 175.921 15.873 176.412 16.4531C176.906 17.0296 177.549 17.3179 178.34 17.3179C179.185 17.3179 179.851 17.0422 180.338 16.4907C180.825 15.9393 181.068 15.1676 181.068 14.1758C181.068 13.1589 180.832 12.3729 180.359 11.8179C179.887 11.2629 179.235 10.9854 178.404 10.9854ZM46.1357 33.1343C45.0329 33.1343 44.1341 32.7762 43.4395 32.0601C42.7448 31.3403 42.3975 30.404 42.3975 29.251C42.3975 28.0335 42.7502 27.0488 43.4556 26.2969C44.161 25.5449 45.0955 25.1689 46.2593 25.1689C47.3586 25.1689 48.2466 25.5288 48.9233 26.2485C49.6037 26.9683 49.9438 27.9172 49.9438 29.0952C49.9438 30.3055 49.5911 31.2812 48.8857 32.0225C48.1839 32.7637 47.2673 33.1343 46.1357 33.1343ZM46.2109 26.6621C45.6022 26.6621 45.1188 26.8913 44.7607 27.3496C44.4027 27.8044 44.2236 28.4077 44.2236 29.1597C44.2236 29.9224 44.4027 30.5257 44.7607 30.9697C45.1188 31.4137 45.5879 31.6357 46.168 31.6357C46.766 31.6357 47.2404 31.4209 47.5913 30.9912C47.9422 30.5579 48.1177 29.9582 48.1177 29.1919C48.1177 28.3934 47.9476 27.7721 47.6074 27.3281C47.2673 26.8841 46.8018 26.6621 46.2109 26.6621ZM53.0322 25.1152L51.9956 27.5H50.9536L51.5659 25.1152H53.0322ZM59.9609 33H53.7573V32.001L57.7051 26.7104H54.042V25.2979H59.9502V26.27L56.0884 31.5928H59.9609V33ZM61.0996 33V25.2979H63.9033C64.7627 25.2979 65.4233 25.4554 65.8853 25.7705C66.3472 26.0856 66.5781 26.5296 66.5781 27.1025C66.5781 27.5179 66.4367 27.8813 66.1538 28.1929C65.8745 28.5044 65.5164 28.721 65.0796 28.8428V28.8643C65.6274 28.9323 66.0643 29.1346 66.3901 29.4712C66.7196 29.8078 66.8843 30.2178 66.8843 30.7012C66.8843 31.4066 66.6318 31.967 66.127 32.3823C65.6221 32.7941 64.9328 33 64.0591 33H61.0996ZM62.8345 26.5762V28.4023H63.5972C63.9552 28.4023 64.2363 28.3164 64.4404 28.1445C64.6481 27.9691 64.752 27.7292 64.752 27.4248C64.752 26.859 64.3294 26.5762 63.4844 26.5762H62.8345ZM62.8345 29.6914V31.7217H63.7744C64.1755 31.7217 64.4888 31.6286 64.7144 31.4424C64.9435 31.2562 65.0581 31.002 65.0581 30.6797C65.0581 30.3717 64.9453 30.13 64.7197 29.9546C64.4977 29.7791 64.1862 29.6914 63.7852 29.6914H62.8345ZM72.7764 33H68.1572V25.2979H72.5991V26.7104H69.8921V28.4238H72.4111V29.8311H69.8921V31.5928H72.7764V33ZM80.4141 33H78.2227L75.9775 29.6538C75.9346 29.5894 75.8665 29.4479 75.7734 29.2295H75.7466V33H74.0117V25.2979H75.7466V28.9395H75.7734C75.8164 28.8392 75.888 28.696 75.9883 28.5098L78.1152 25.2979H80.1831L77.4976 28.9717L80.4141 33ZM82.8901 33H81.1553V25.2979H82.8901V33ZM84.292 32.7046V30.9858C84.6035 31.2472 84.9419 31.4442 85.3071 31.5767C85.6724 31.7056 86.0412 31.77 86.4136 31.77C86.632 31.77 86.8218 31.7503 86.9829 31.7109C87.1476 31.6715 87.2837 31.6178 87.3911 31.5498C87.5021 31.4782 87.5845 31.3958 87.6382 31.3027C87.6919 31.2061 87.7188 31.1022 87.7188 30.9912C87.7188 30.8408 87.6758 30.7065 87.5898 30.5884C87.5039 30.4702 87.3857 30.361 87.2354 30.2607C87.0885 30.1605 86.9131 30.0638 86.709 29.9707C86.5049 29.8776 86.2847 29.7827 86.0483 29.686C85.4468 29.4354 84.9974 29.1292 84.7002 28.7676C84.4066 28.4059 84.2598 27.9691 84.2598 27.457C84.2598 27.056 84.3403 26.7122 84.5015 26.4258C84.6626 26.1357 84.881 25.8976 85.1567 25.7114C85.436 25.5252 85.7583 25.3892 86.1235 25.3032C86.4888 25.2137 86.8755 25.1689 87.2837 25.1689C87.6847 25.1689 88.0392 25.194 88.3472 25.2441C88.6587 25.2907 88.9451 25.3641 89.2065 25.4644V27.0703C89.0776 26.9808 88.9362 26.902 88.7822 26.834C88.6318 26.766 88.4761 26.7104 88.3149 26.6675C88.1538 26.6209 87.9927 26.5869 87.8315 26.5654C87.674 26.5439 87.5236 26.5332 87.3804 26.5332C87.1834 26.5332 87.0044 26.5529 86.8433 26.5923C86.6821 26.6281 86.5461 26.68 86.4351 26.748C86.3241 26.8161 86.2381 26.8984 86.1772 26.9951C86.1164 27.0882 86.0859 27.1938 86.0859 27.312C86.0859 27.4409 86.12 27.5573 86.188 27.6611C86.256 27.7614 86.3527 27.8581 86.478 27.9512C86.6034 28.0407 86.7555 28.1302 86.9346 28.2197C87.1136 28.3057 87.3159 28.3952 87.5415 28.4883C87.8494 28.6172 88.1252 28.755 88.3687 28.9019C88.6157 29.0451 88.827 29.208 89.0024 29.3906C89.1779 29.5732 89.3122 29.7827 89.4053 30.019C89.4984 30.2518 89.5449 30.5239 89.5449 30.8354C89.5449 31.2651 89.4626 31.6268 89.2979 31.9204C89.1367 32.2104 88.9165 32.4468 88.6372 32.6294C88.3579 32.8084 88.0321 32.9373 87.6597 33.0161C87.2909 33.0949 86.9006 33.1343 86.4888 33.1343C86.0662 33.1343 85.6634 33.0985 85.2803 33.0269C84.9007 32.9552 84.5713 32.8478 84.292 32.7046ZM96.2212 26.7104H94.0244V33H92.2842V26.7104H90.0981V25.2979H96.2212V26.7104ZM100.104 33.1343C99.0016 33.1343 98.1029 32.7762 97.4082 32.0601C96.7135 31.3403 96.3662 30.404 96.3662 29.251C96.3662 28.0335 96.7189 27.0488 97.4243 26.2969C98.1297 25.5449 99.0643 25.1689 100.228 25.1689C101.327 25.1689 102.215 25.5288 102.892 26.2485C103.572 26.9683 103.913 27.9172 103.913 29.0952C103.913 30.3055 103.56 31.2812 102.854 32.0225C102.153 32.7637 101.236 33.1343 100.104 33.1343ZM100.18 26.6621C99.571 26.6621 99.0876 26.8913 98.7295 27.3496C98.3714 27.8044 98.1924 28.4077 98.1924 29.1597C98.1924 29.9224 98.3714 30.5257 98.7295 30.9697C99.0876 31.4137 99.5566 31.6357 100.137 31.6357C100.735 31.6357 101.209 31.4209 101.56 30.9912C101.911 30.5579 102.086 29.9582 102.086 29.1919C102.086 28.3934 101.916 27.7721 101.576 27.3281C101.236 26.8841 100.771 26.6621 100.18 26.6621ZM112.125 33H110.374L107.2 28.1606C107.014 27.8778 106.885 27.6647 106.813 27.5215H106.792C106.82 27.7936 106.834 28.209 106.834 28.7676V33H105.196V25.2979H107.065L110.122 29.9868C110.261 30.1981 110.39 30.4076 110.508 30.6152H110.53C110.501 30.4362 110.487 30.0835 110.487 29.5571V25.2979H112.125V33ZM122.335 26.7104H120.139V33H118.398V26.7104H116.212V25.2979H122.335V26.7104ZM127.991 33H123.372V25.2979H127.814V26.7104H125.107V28.4238H127.626V29.8311H125.107V31.5928H127.991V33ZM138.003 33H136.29V28.3916C136.29 27.8939 136.311 27.3442 136.354 26.7427H136.311C136.222 27.2153 136.141 27.5555 136.069 27.7632L134.265 33H132.847L131.01 27.8169C130.96 27.6772 130.879 27.3192 130.768 26.7427H130.72C130.766 27.5018 130.79 28.1678 130.79 28.7407V33H129.227V25.2979H131.767L133.341 29.8633C133.466 30.2285 133.557 30.5955 133.615 30.9644H133.647C133.744 30.5382 133.846 30.1676 133.953 29.8525L135.527 25.2979H138.003V33ZM141.489 33H139.754V25.2979H141.489V33ZM149.707 33H147.714L146.516 31.0181C146.427 30.8677 146.341 30.7334 146.258 30.6152C146.176 30.4971 146.092 30.3968 146.006 30.3145C145.924 30.2285 145.836 30.1641 145.743 30.1211C145.653 30.0745 145.555 30.0513 145.447 30.0513H144.98V33H143.245V25.2979H145.995C147.864 25.2979 148.799 25.9961 148.799 27.3926C148.799 27.6611 148.758 27.91 148.675 28.1392C148.593 28.3647 148.477 28.5688 148.326 28.7515C148.176 28.9341 147.993 29.0916 147.778 29.2241C147.567 29.3566 147.331 29.4604 147.069 29.5356V29.5571C147.184 29.5929 147.295 29.652 147.402 29.7344C147.51 29.8132 147.614 29.9062 147.714 30.0137C147.814 30.1211 147.909 30.2375 147.999 30.3628C148.092 30.4845 148.176 30.6045 148.251 30.7227L149.707 33ZM144.98 26.5977V28.7407H145.732C146.104 28.7407 146.403 28.6333 146.629 28.4185C146.858 28.2 146.973 27.9297 146.973 27.6074C146.973 26.9342 146.57 26.5977 145.764 26.5977H144.98ZM159.278 25.2979L156.77 30.2607V33H155.035V30.293L152.591 25.2979H154.573L155.813 28.1714C155.835 28.2251 155.894 28.4346 155.991 28.7998H156.012C156.059 28.542 156.114 28.3397 156.179 28.1929L157.441 25.2979H159.278ZM163.129 33.1343C162.026 33.1343 161.127 32.7762 160.433 32.0601C159.738 31.3403 159.391 30.404 159.391 29.251C159.391 28.0335 159.743 27.0488 160.449 26.2969C161.154 25.5449 162.089 25.1689 163.252 25.1689C164.352 25.1689 165.24 25.5288 165.917 26.2485C166.597 26.9683 166.937 27.9172 166.937 29.0952C166.937 30.3055 166.584 31.2812 165.879 32.0225C165.177 32.7637 164.26 33.1343 163.129 33.1343ZM163.204 26.6621C162.595 26.6621 162.112 26.8913 161.754 27.3496C161.396 27.8044 161.217 28.4077 161.217 29.1597C161.217 29.9224 161.396 30.5257 161.754 30.9697C162.112 31.4137 162.581 31.6357 163.161 31.6357C163.759 31.6357 164.234 31.4209 164.584 30.9912C164.935 30.5579 165.111 29.9582 165.111 29.1919C165.111 28.3934 164.941 27.7721 164.601 27.3281C164.26 26.8841 163.795 26.6621 163.204 26.6621ZM170.025 25.1152L168.989 27.5H167.947L168.559 25.1152H170.025ZM175.998 33H171.411V25.2979H173.146V31.5928H175.998V33ZM181.627 33H177.04V25.2979H178.775V31.5928H181.627V33ZM189.689 33H187.798L187.25 31.2866H184.511L183.969 33H182.089L184.893 25.2979H186.95L189.689 33ZM186.853 29.9546L186.026 27.3657C185.965 27.1724 185.922 26.9414 185.897 26.6729H185.854C185.836 26.8984 185.791 27.1222 185.72 27.3442L184.882 29.9546H186.853ZM197.112 33H195.119L193.921 31.0181C193.832 30.8677 193.746 30.7334 193.664 30.6152C193.581 30.4971 193.497 30.3968 193.411 30.3145C193.329 30.2285 193.241 30.1641 193.148 30.1211C193.058 30.0745 192.96 30.0513 192.853 30.0513H192.385V33H190.65V25.2979H193.4C195.27 25.2979 196.204 25.9961 196.204 27.3926C196.204 27.6611 196.163 27.91 196.081 28.1392C195.998 28.3647 195.882 28.5688 195.731 28.7515C195.581 28.9341 195.398 29.0916 195.184 29.2241C194.972 29.3566 194.736 29.4604 194.475 29.5356V29.5571C194.589 29.5929 194.7 29.652 194.808 29.7344C194.915 29.8132 195.019 29.9062 195.119 30.0137C195.219 30.1211 195.314 30.2375 195.404 30.3628C195.497 30.4845 195.581 30.6045 195.656 30.7227L197.112 33ZM192.385 26.5977V28.7407H193.137C193.51 28.7407 193.809 28.6333 194.034 28.4185C194.263 28.2 194.378 27.9297 194.378 27.6074C194.378 26.9342 193.975 26.5977 193.169 26.5977H192.385ZM199.572 33H197.837V25.2979H199.572V33Z" fill="white"/>
</svg>

