<svg width="14" height="16" viewBox="0 0 14 16" fill="none" xmlns="http://www.w3.org/2000/svg">
   <path fill-rule="evenodd" clip-rule="evenodd" d="M11.9497 1.96434C10.6276 0.697625 8.86974 0 7 0C5.13026 0 3.3724 0.697625 2.05027 1.96434C0.728142 3.23106 0 4.91522 0 6.70662C0 8.49803 0.728109 10.1822 2.05027 11.4489L6.65938 15.8648C6.75342 15.9549 6.87671 16 7 16C7.12329 16 7.24658 15.9549 7.34062 15.8648L11.9497 11.4489C13.2719 10.1822 14 8.498 14 6.70659C14 4.91519 13.2718 3.23103 11.9497 1.96434ZM11.2685 10.7962L7 14.8857L2.73154 10.7962C0.377901 8.54119 0.377901 4.87203 2.73154 2.61706C3.90837 1.48956 5.45418 0.925812 7 0.925812C8.54582 0.925812 10.0916 1.48956 11.2685 2.61706C13.6221 4.87203 13.6221 8.54119 11.2685 10.7962ZM7.96342 3.84615H6.0365C4.88545 3.84615 3.94901 4.74334 3.94901 5.84615V8.61537C3.94901 9.16603 4.38272 9.62119 4.93995 9.68447L4.64216 10.2551C4.52317 10.4831 4.61965 10.7603 4.85759 10.8743C4.92674 10.9074 5.00026 10.9232 5.07264 10.9232C5.24932 10.9232 5.41949 10.8297 5.50387 10.6679L6.01308 9.69231H7.98684L8.49599 10.6679C8.5804 10.8297 8.7505 10.9232 8.92722 10.9232C8.99959 10.9232 9.07311 10.9075 9.14226 10.8743C9.38023 10.7603 9.47668 10.4831 9.3577 10.2551L9.0599 9.68447C9.61716 9.62119 10.0509 9.166 10.0509 8.61537V5.84615C10.0509 4.74334 9.11447 3.84615 7.96342 3.84615ZM9.08746 8.61537C9.08746 8.70022 9.01545 8.76922 8.92689 8.76922H5.07306C4.98451 8.76922 4.91249 8.70022 4.91249 8.61537V5.84615C4.91249 5.25234 5.41671 4.76922 6.03654 4.76922H7.96345C8.58324 4.76922 9.0875 5.25231 9.0875 5.84615V8.61537H9.08746ZM6.50894 7.60213C6.51184 7.61694 6.51442 7.632 6.51569 7.64675C6.51729 7.66181 6.51827 7.67719 6.51827 7.69228C6.51827 7.70734 6.51729 7.72272 6.51569 7.73778C6.51439 7.75256 6.51184 7.76766 6.50894 7.78241C6.50574 7.79722 6.5019 7.81194 6.4974 7.82641C6.4926 7.84056 6.48745 7.85506 6.48135 7.86891C6.47525 7.88272 6.4685 7.89628 6.46112 7.9095C6.45375 7.92306 6.44573 7.93597 6.43705 7.94859C6.42838 7.96091 6.41905 7.97322 6.4091 7.98491C6.39915 7.99659 6.38823 8.00797 6.3773 8.01875C6.36605 8.02925 6.35417 8.03941 6.34197 8.04922C6.32978 8.05847 6.31693 8.06769 6.30407 8.076C6.29093 8.08431 6.27743 8.09203 6.2633 8.09906C6.24947 8.10616 6.23535 8.11263 6.2209 8.11844C6.20645 8.12428 6.19135 8.12922 6.17657 8.13381C6.16147 8.13809 6.14608 8.14178 6.13065 8.14487C6.11522 8.14766 6.0995 8.15013 6.08407 8.15166C6.06835 8.15287 6.05227 8.15381 6.03655 8.15381C6.02083 8.15381 6.00475 8.15287 5.98903 8.15166C5.9736 8.15009 5.95788 8.14766 5.94245 8.14487C5.92702 8.14181 5.91163 8.13816 5.89652 8.13381C5.88175 8.12925 5.86665 8.12428 5.8522 8.11844C5.83775 8.11259 5.82359 8.10616 5.8098 8.09906C5.79567 8.09203 5.7822 8.08434 5.76902 8.076C5.75617 8.06772 5.74332 8.05844 5.73112 8.04922C5.71893 8.03941 5.70705 8.02925 5.6958 8.01875C5.68487 8.00797 5.67398 7.99659 5.664 7.98491C5.65402 7.97322 5.64472 7.96088 5.63604 7.94859C5.6274 7.93597 5.61938 7.92303 5.61197 7.9095C5.6046 7.89628 5.59785 7.88272 5.59175 7.86891C5.58565 7.85506 5.58053 7.84056 5.5757 7.82641C5.57124 7.81194 5.56735 7.79719 5.56416 7.78241C5.56125 7.76766 5.55868 7.75256 5.55741 7.73778C5.55581 7.72275 5.55483 7.70734 5.55483 7.69228C5.55483 7.67722 5.55581 7.66181 5.55741 7.64675C5.55871 7.632 5.56125 7.61691 5.56416 7.60213C5.56735 7.58734 5.5712 7.57259 5.5757 7.55813C5.5805 7.54397 5.58565 7.5295 5.59175 7.51566C5.59785 7.50181 5.6046 7.48797 5.61197 7.47503C5.61935 7.4615 5.62737 7.44859 5.63604 7.43597C5.64472 7.42363 5.65405 7.41134 5.664 7.39966C5.67395 7.38794 5.68487 7.37659 5.6958 7.36609C5.70705 7.35531 5.71893 7.34516 5.73112 7.33531C5.74332 7.32606 5.75617 7.31687 5.76902 7.30856C5.78217 7.30025 5.79567 7.29253 5.8098 7.2855C5.82363 7.27841 5.83775 7.27194 5.8522 7.26609C5.86665 7.26028 5.88175 7.25534 5.89652 7.25072C5.91163 7.24647 5.92702 7.24275 5.94245 7.23969C5.95788 7.23691 5.9736 7.23444 5.98903 7.23288C6.02047 7.23009 6.0526 7.23009 6.08407 7.23288C6.0995 7.23447 6.11522 7.23691 6.13065 7.23969C6.14608 7.24272 6.16147 7.24641 6.17657 7.25072C6.19135 7.25531 6.20645 7.26028 6.2209 7.26609C6.23535 7.27197 6.24951 7.27844 6.2633 7.2855C6.27743 7.29253 6.2909 7.30022 6.30407 7.30856C6.31693 7.31684 6.32978 7.32609 6.34197 7.33531C6.35417 7.34516 6.36605 7.35531 6.3773 7.36609C6.38823 7.37659 6.39915 7.38794 6.4091 7.39966C6.41908 7.41134 6.42838 7.42366 6.43705 7.43597C6.4457 7.44859 6.45375 7.46153 6.46112 7.47503C6.4685 7.48797 6.47525 7.50181 6.48135 7.51566C6.48745 7.5295 6.49257 7.54397 6.4974 7.55813C6.50186 7.57259 6.50571 7.58738 6.50894 7.60213ZM8.44291 7.64675C8.44131 7.632 8.43873 7.61694 8.43583 7.60213C8.43263 7.58738 8.42875 7.57259 8.42428 7.55813C8.41946 7.54397 8.41434 7.5295 8.40824 7.51566C8.40214 7.50181 8.39539 7.48797 8.38801 7.47503C8.38064 7.46153 8.37259 7.44859 8.36394 7.43597C8.35527 7.42366 8.34597 7.41134 8.33599 7.39966C8.32604 7.38794 8.31511 7.37659 8.30419 7.36609C8.29293 7.35531 8.28106 7.34516 8.26886 7.33531C8.25667 7.32609 8.24381 7.31684 8.23096 7.30856C8.21779 7.30022 8.20432 7.29253 8.19049 7.2855C8.17669 7.27844 8.16224 7.27197 8.14776 7.26609C8.13331 7.26028 8.11821 7.25531 8.10343 7.25072C8.08833 7.24641 8.07293 7.24272 8.05751 7.23969C8.04208 7.23691 8.02636 7.23447 8.01093 7.23288C7.97945 7.23009 7.94732 7.23009 7.91588 7.23288C7.90045 7.23444 7.88473 7.23691 7.86931 7.23969C7.85388 7.24275 7.83848 7.24647 7.82338 7.25072C7.8086 7.25534 7.7935 7.26028 7.77905 7.26609C7.7646 7.27194 7.75016 7.27841 7.73633 7.2855C7.72253 7.29253 7.70902 7.30025 7.69585 7.30856C7.683 7.31687 7.67015 7.32606 7.65795 7.33531C7.64575 7.34516 7.63388 7.35531 7.62262 7.36609C7.6117 7.37659 7.60077 7.38794 7.59082 7.39966C7.58087 7.41134 7.57154 7.42363 7.56287 7.43597C7.55419 7.44859 7.54617 7.4615 7.5388 7.47503C7.53142 7.48797 7.52467 7.50181 7.51857 7.51566C7.51247 7.5295 7.50732 7.54397 7.50253 7.55813C7.49803 7.57259 7.49418 7.58734 7.49098 7.60213C7.48808 7.61691 7.48553 7.632 7.4839 7.64675C7.4823 7.66181 7.48165 7.67722 7.48165 7.69228C7.48165 7.70734 7.4823 7.72275 7.4839 7.73778C7.4855 7.75256 7.48808 7.76766 7.49098 7.78241C7.49418 7.79719 7.49806 7.81194 7.50253 7.82641C7.50735 7.84056 7.51247 7.85506 7.51857 7.86891C7.52467 7.88272 7.53142 7.89628 7.5388 7.9095C7.5462 7.92303 7.55422 7.93597 7.56287 7.94859C7.57154 7.96088 7.58084 7.97322 7.59082 7.98491C7.6008 7.99659 7.6117 8.00797 7.62262 8.01875C7.63388 8.02925 7.64575 8.03941 7.65795 8.04922C7.67015 8.05844 7.683 8.06772 7.69585 8.076C7.70902 8.08434 7.7225 8.09203 7.73633 8.09906C7.75012 8.10616 7.76457 8.11259 7.77905 8.11844C7.7935 8.12428 7.8086 8.12925 7.82338 8.13381C7.83848 8.13816 7.85388 8.14181 7.86931 8.14487C7.88473 8.14766 7.90045 8.15009 7.91588 8.15166C7.9316 8.15287 7.94768 8.15381 7.96341 8.15381C7.97913 8.15381 7.99521 8.15287 8.01093 8.15166C8.02636 8.15013 8.04208 8.14766 8.05751 8.14487C8.07293 8.14178 8.08833 8.13809 8.10343 8.13381C8.11821 8.12922 8.13331 8.12428 8.14776 8.11844C8.16221 8.11263 8.17633 8.10616 8.19016 8.09906C8.20428 8.09203 8.21778 8.08431 8.23093 8.076C8.24378 8.06769 8.25663 8.05847 8.26883 8.04922C8.28103 8.03941 8.2929 8.02925 8.30415 8.01875C8.31508 8.00797 8.32598 7.99659 8.33596 7.98491C8.34594 7.97322 8.35523 7.96091 8.36391 7.94859C8.37259 7.93597 8.38061 7.92306 8.38798 7.9095C8.39535 7.89628 8.4021 7.88272 8.4082 7.86891C8.4143 7.85506 8.41946 7.84056 8.42425 7.82641C8.42875 7.81194 8.4326 7.79722 8.4358 7.78241C8.4387 7.76766 8.44125 7.75256 8.44288 7.73778C8.44447 7.72272 8.44513 7.70734 8.44513 7.69228C8.44516 7.67719 8.44451 7.66181 8.44291 7.64675ZM6.03649 5.38463H7.9634C8.22946 5.38463 8.44512 5.59128 8.44512 5.84616C8.44512 6.10103 8.22946 6.30769 7.9634 6.30769H6.03649C5.77046 6.30769 5.55476 6.10103 5.55476 5.84616C5.55476 5.59128 5.77043 5.38463 6.03649 5.38463Z" fill="#8090A0"/>
</svg>
