<svg width="18" height="12" viewBox="0 0 18 12" fill="none" xmlns="http://www.w3.org/2000/svg">
   <path d="M1.50002 1.83335H16.5C16.721 1.83335 16.933 1.74556 17.0893 1.58928C17.2456 1.433 17.3334 1.22103 17.3334 1.00002C17.3334 0.779007 17.2456 0.567045 17.0893 0.410765C16.933 0.254485 16.721 0.166687 16.5 0.166687H1.50002C1.27901 0.166687 1.06704 0.254485 0.910765 0.410765C0.754484 0.567045 0.666687 0.779007 0.666687 1.00002C0.666687 1.22103 0.754484 1.433 0.910765 1.58928C1.06704 1.74556 1.27901 1.83335 1.50002 1.83335ZM1.50002 5.16669H13.1667C13.3877 5.16669 13.5997 5.07889 13.7559 4.92261C13.9122 4.76633 14 4.55437 14 4.33335C14 4.11234 13.9122 3.90038 13.7559 3.7441C13.5997 3.58782 13.3877 3.50002 13.1667 3.50002H1.50002C1.27901 3.50002 1.06704 3.58782 0.910765 3.7441C0.754484 3.90038 0.666687 4.11234 0.666687 4.33335C0.666687 4.55437 0.754484 4.76633 0.910765 4.92261C1.06704 5.07889 1.27901 5.16669 1.50002 5.16669ZM16.5 6.83335H1.50002C1.27901 6.83335 1.06704 6.92115 0.910765 7.07743C0.754484 7.23371 0.666687 7.44567 0.666687 7.66669C0.666687 7.8877 0.754484 8.09966 0.910765 8.25594C1.06704 8.41222 1.27901 8.50002 1.50002 8.50002H16.5C16.721 8.50002 16.933 8.41222 17.0893 8.25594C17.2456 8.09966 17.3334 7.8877 17.3334 7.66669C17.3334 7.44567 17.2456 7.23371 17.0893 7.07743C16.933 6.92115 16.721 6.83335 16.5 6.83335ZM13.1667 10.1667H1.50002C1.27901 10.1667 1.06704 10.2545 0.910765 10.4108C0.754484 10.567 0.666687 10.779 0.666687 11C0.666687 11.221 0.754484 11.433 0.910765 11.5893C1.06704 11.7456 1.27901 11.8334 1.50002 11.8334H13.1667C13.3877 11.8334 13.5997 11.7456 13.7559 11.5893C13.9122 11.433 14 11.221 14 11C14 10.779 13.9122 10.567 13.7559 10.4108C13.5997 10.2545 13.3877 10.1667 13.1667 10.1667Z" fill="#187CEE"/>
</svg>
