<svg width="16" height="12" viewBox="0 0 16 12" fill="none" xmlns="http://www.w3.org/2000/svg">
   <path d="M8.19996 6.14668C8.55568 5.83877 8.84099 5.45793 9.03654 5.03003C9.23209 4.60212 9.3333 4.13715 9.33329 3.66668C9.33329 2.78262 8.9821 1.93478 8.35698 1.30965C7.73186 0.684533 6.88401 0.333344 5.99996 0.333344C5.1159 0.333344 4.26806 0.684533 3.64294 1.30965C3.01782 1.93478 2.66663 2.78262 2.66663 3.66668C2.66662 4.13715 2.76783 4.60212 2.96338 5.03003C3.15893 5.45793 3.44424 5.83877 3.79996 6.14668C2.86672 6.56927 2.07494 7.2517 1.51928 8.11237C0.963623 8.97305 0.667607 9.97555 0.666626 11C0.666626 11.1768 0.736864 11.3464 0.861888 11.4714C0.986912 11.5964 1.15648 11.6667 1.33329 11.6667C1.5101 11.6667 1.67967 11.5964 1.8047 11.4714C1.92972 11.3464 1.99996 11.1768 1.99996 11C1.99996 9.93914 2.42139 8.92173 3.17153 8.17158C3.92168 7.42144 4.93909 7.00001 5.99996 7.00001C7.06083 7.00001 8.07824 7.42144 8.82839 8.17158C9.57853 8.92173 9.99996 9.93914 9.99996 11C9.99996 11.1768 10.0702 11.3464 10.1952 11.4714C10.3202 11.5964 10.4898 11.6667 10.6666 11.6667C10.8434 11.6667 11.013 11.5964 11.138 11.4714C11.2631 11.3464 11.3333 11.1768 11.3333 11C11.3323 9.97555 11.0363 8.97305 10.4806 8.11237C9.92498 7.2517 9.1332 6.56927 8.19996 6.14668ZM5.99996 5.66668C5.6044 5.66668 5.21772 5.54938 4.88882 5.32962C4.55992 5.10985 4.30358 4.7975 4.1522 4.43204C4.00083 4.06659 3.96122 3.66446 4.03839 3.2765C4.11556 2.88853 4.30604 2.53217 4.58575 2.25246C4.86545 1.97276 5.22182 1.78228 5.60978 1.70511C5.99774 1.62794 6.39987 1.66754 6.76533 1.81892C7.13078 1.97029 7.44314 2.22664 7.6629 2.55554C7.88266 2.88443 7.99996 3.27111 7.99996 3.66668C7.99996 4.19711 7.78925 4.70582 7.41417 5.08089C7.0391 5.45596 6.53039 5.66668 5.99996 5.66668ZM12.4933 5.88001C12.9199 5.39956 13.1986 4.80605 13.2958 4.1709C13.393 3.53576 13.3046 2.88606 13.0411 2.30001C12.7777 1.71396 12.3505 1.21654 11.8109 0.867625C11.2714 0.51871 10.6425 0.333172 9.99996 0.333344C9.82315 0.333344 9.65358 0.403581 9.52855 0.528606C9.40353 0.65363 9.33329 0.823199 9.33329 1.00001C9.33329 1.17682 9.40353 1.34639 9.52855 1.47141C9.65358 1.59644 9.82315 1.66668 9.99996 1.66668C10.5304 1.66668 11.0391 1.87739 11.4142 2.25246C11.7892 2.62754 12 3.13624 12 3.66668C11.999 4.01684 11.9062 4.36061 11.7307 4.66362C11.5552 4.96664 11.3032 5.21826 11 5.39334C10.9011 5.45036 10.8186 5.53179 10.7602 5.62984C10.7018 5.72789 10.6696 5.83928 10.6666 5.95334C10.6638 6.06652 10.6899 6.17854 10.7424 6.27885C10.7949 6.37916 10.8721 6.46445 10.9666 6.52668L11.2266 6.70001L11.3133 6.74668C12.1169 7.12782 12.7948 7.73067 13.2673 8.48422C13.7397 9.23777 13.987 10.1106 13.98 11C13.98 11.1768 14.0502 11.3464 14.1752 11.4714C14.3002 11.5964 14.4698 11.6667 14.6466 11.6667C14.8234 11.6667 14.993 11.5964 15.118 11.4714C15.2431 11.3464 15.3133 11.1768 15.3133 11C15.3187 9.97696 15.0625 8.96951 14.5689 8.07338C14.0754 7.17726 13.3609 6.42222 12.4933 5.88001Z" fill="#8090A0"/>
</svg>
